<svg xmlns="http://www.w3.org/2000/svg" viewBox="0 0 260 180" role="img" aria-labelledby="title">
  <title id="title">Cartoon red and green pirate ship</title>
  <g fill="none" stroke="#542b32" stroke-linecap="round" stroke-linejoin="round">
    <path d="M47 118h166l-18 31H74l-27-31Z" fill="#ad2b43" stroke-width="6"/>
    <path d="M69 149c18 14 39 20 63 20s45-6 63-20" stroke="#267054" stroke-width="5"/>
    <path d="M130 30v88" stroke-width="7"/>
    <path d="M130 38c-28 9-49 30-60 63h60V38Z" fill="#dceade" stroke="#267054" stroke-width="5"/>
    <path d="M137 49c29 8 48 26 57 52h-57V49Z" fill="#f2f7f2" stroke="#267054" stroke-width="5"/>
    <path d="M130 38c7-14 20-19 34-15l-7 10 10 7c-14-4-25-4-37-2Z" fill="#ad2b43" stroke-width="4"/>
    <path d="M104 104c8-20 20-29 26-29s18 9 26 29c-17 7-35 7-52 0Z" fill="#ead58e" stroke-width="4"/>
    <path d="M108 93c15 5 29 5 44 0l5 13c-18 6-36 6-54 0l5-13Z" fill="#bd3048" stroke-width="3"/>
    <circle cx="92" cy="132" r="6" fill="#dceade" stroke-width="3"/>
    <circle cx="130" cy="132" r="6" fill="#dceade" stroke-width="3"/>
    <circle cx="168" cy="132" r="6" fill="#dceade" stroke-width="3"/>
    <path d="M25 164c16-11 31-11 47 0 16-11 31-11 47 0 16-11 31-11 47 0 16-11 31-11 47 0" stroke="#267054" stroke-width="4"/>
  </g>
</svg>
